# xmcd CD database file
#
# Track frame offsets:
#	150
#	18072
#	31131
#	46074
#	59661
#	74863
#	88721
#	102863
#	121055
#	136453
#	153760
#	165946
#	176226
#
# Disc length: 2583 seconds
#
# Revision: 0
# Processed by: cddbd v1.5.2PL0 Copyright (c) Steve Scherf et al.
# Submitted via: CDex 1.70beta2
#
DISCID=a30a150d
DTITLE=The Blue Van - Man Up
DYEAR=2008
DGENRE=Blues
TTITLE0=Be Home Soon
TTITLE1=Man Up
TTITLE2=Silly Boy
TTITLE3=There Goes My Love
TTITLE4=Lay Me Down and Die
TTITLE5=The Socialite
TTITLE6=In Love With Myself
TTITLE7=Out of Control
TTITLE8=True
TTITLE9=I'm a Man
TTITLE10=Stop Thinking of Yourself
TTITLE11=Trees That Resemble
TTITLE12=Put My Name in the Sand
EXTD=YEAR: 2008
EXTT0=
EXTT1=
EXTT2=
EXTT3=
EXTT4=
EXTT5=
EXTT6=
EXTT7=
EXTT8=
EXTT9=
EXTT10=
EXTT11=
EXTT12=
PLAYORDER=
